<mxfile host="app.diagrams.net" agent="Mozilla/5.0 (Macintosh; Intel Mac OS X 10_15_7) AppleWebKit/537.36 (KHTML, like Gecko) Chrome/127.0.0.0 Safari/537.36" version="24.7.6">
  <diagram name="Page-1" id="55a83fd1-7818-8e21-69c5-c3457e3827bb">
    <mxGraphModel dx="658" dy="369" grid="1" gridSize="10" guides="1" tooltips="1" connect="1" arrows="1" fold="1" page="1" pageScale="1" pageWidth="1100" pageHeight="850" background="none" math="0" shadow="0">
      <root>
        <mxCell id="0" />
        <mxCell id="1" parent="0" />
        <mxCell id="LZakeDD19DZGT0qmxfEW-1" value="" style="image;html=1;image=img/lib/clip_art/networking/Repeater_128x128.png" vertex="1" parent="1">
          <mxGeometry x="510" y="100" width="80" height="80" as="geometry" />
        </mxCell>
        <mxCell id="LZakeDD19DZGT0qmxfEW-2" value="" style="image;html=1;image=img/lib/clip_art/computers/iMac_128x128.png" vertex="1" parent="1">
          <mxGeometry x="150" y="430" width="80" height="80" as="geometry" />
        </mxCell>
        <mxCell id="LZakeDD19DZGT0qmxfEW-3" value="" style="image;html=1;image=img/lib/clip_art/computers/iMac_128x128.png" vertex="1" parent="1">
          <mxGeometry x="320" y="420" width="80" height="80" as="geometry" />
        </mxCell>
        <mxCell id="LZakeDD19DZGT0qmxfEW-4" value="" style="image;html=1;image=img/lib/clip_art/computers/iMac_128x128.png" vertex="1" parent="1">
          <mxGeometry x="490" y="420" width="80" height="80" as="geometry" />
        </mxCell>
        <mxCell id="LZakeDD19DZGT0qmxfEW-5" value="" style="image;html=1;image=img/lib/clip_art/telecommunication/iPhone_128x128.png" vertex="1" parent="1">
          <mxGeometry x="910" y="260" width="80" height="80" as="geometry" />
        </mxCell>
        <mxCell id="LZakeDD19DZGT0qmxfEW-6" value="" style="image;html=1;image=img/lib/clip_art/telecommunication/iPhone_128x128.png" vertex="1" parent="1">
          <mxGeometry x="920" y="420" width="80" height="80" as="geometry" />
        </mxCell>
        <mxCell id="LZakeDD19DZGT0qmxfEW-7" value="INTERNET GATEWAY&lt;div&gt;Router&lt;/div&gt;&lt;div&gt;ADSL Modem&lt;br&gt;VDSL Modem&lt;br&gt;Firewall&lt;/div&gt;&lt;div&gt;192.168.0.1&lt;/div&gt;" style="text;html=1;align=center;verticalAlign=middle;resizable=0;points=[];autosize=1;strokeColor=none;fillColor=none;" vertex="1" parent="1">
          <mxGeometry x="480" y="180" width="140" height="100" as="geometry" />
        </mxCell>
        <mxCell id="LZakeDD19DZGT0qmxfEW-8" value="" style="image;html=1;image=img/lib/clip_art/networking/Cloud_128x128.png" vertex="1" parent="1">
          <mxGeometry x="445" width="60" height="60" as="geometry" />
        </mxCell>
        <mxCell id="LZakeDD19DZGT0qmxfEW-9" value="&lt;span style=&quot;font-family: monospace, monospace; font-size: 9px; text-align: start; text-wrap: wrap; background-color: rgb(242, 242, 242);&quot;&gt;2.100.211.133&lt;/span&gt;" style="text;html=1;align=center;verticalAlign=middle;resizable=0;points=[];autosize=1;strokeColor=none;fillColor=none;fontSize=9;" vertex="1" parent="1">
          <mxGeometry x="500" y="80" width="90" height="20" as="geometry" />
        </mxCell>
        <mxCell id="LZakeDD19DZGT0qmxfEW-10" value="Internet" style="text;html=1;align=center;verticalAlign=middle;resizable=0;points=[];autosize=1;strokeColor=none;fillColor=none;" vertex="1" parent="1">
          <mxGeometry x="445" y="40" width="60" height="30" as="geometry" />
        </mxCell>
        <mxCell id="LZakeDD19DZGT0qmxfEW-11" value="" style="endArrow=classic;html=1;rounded=0;entryX=0.54;entryY=0.996;entryDx=0;entryDy=0;entryPerimeter=0;" edge="1" parent="1" target="LZakeDD19DZGT0qmxfEW-7">
          <mxGeometry width="50" height="50" relative="1" as="geometry">
            <mxPoint x="520" y="410" as="sourcePoint" />
            <mxPoint x="650" y="340" as="targetPoint" />
          </mxGeometry>
        </mxCell>
        <mxCell id="LZakeDD19DZGT0qmxfEW-12" value="" style="endArrow=classic;html=1;rounded=0;entryX=0.091;entryY=0.967;entryDx=0;entryDy=0;entryPerimeter=0;" edge="1" parent="1" target="LZakeDD19DZGT0qmxfEW-7">
          <mxGeometry width="50" height="50" relative="1" as="geometry">
            <mxPoint x="380" y="410" as="sourcePoint" />
            <mxPoint x="416" y="280" as="targetPoint" />
          </mxGeometry>
        </mxCell>
        <mxCell id="LZakeDD19DZGT0qmxfEW-13" value="" style="endArrow=classic;html=1;rounded=0;" edge="1" parent="1">
          <mxGeometry width="50" height="50" relative="1" as="geometry">
            <mxPoint x="180" y="425" as="sourcePoint" />
            <mxPoint x="460" y="250" as="targetPoint" />
          </mxGeometry>
        </mxCell>
        <mxCell id="LZakeDD19DZGT0qmxfEW-14" value="" style="endArrow=classic;html=1;rounded=0;exitX=0;exitY=0.25;exitDx=0;exitDy=0;entryX=1;entryY=0.75;entryDx=0;entryDy=0;" edge="1" parent="1" source="LZakeDD19DZGT0qmxfEW-5" target="LZakeDD19DZGT0qmxfEW-1">
          <mxGeometry width="50" height="50" relative="1" as="geometry">
            <mxPoint x="660" y="313" as="sourcePoint" />
            <mxPoint x="640" y="190" as="targetPoint" />
          </mxGeometry>
        </mxCell>
        <mxCell id="LZakeDD19DZGT0qmxfEW-15" value="" style="endArrow=classic;html=1;rounded=0;exitX=0;exitY=0.5;exitDx=0;exitDy=0;" edge="1" parent="1" source="LZakeDD19DZGT0qmxfEW-6" target="LZakeDD19DZGT0qmxfEW-7">
          <mxGeometry width="50" height="50" relative="1" as="geometry">
            <mxPoint x="920" y="400" as="sourcePoint" />
            <mxPoint x="600" y="280" as="targetPoint" />
          </mxGeometry>
        </mxCell>
        <mxCell id="LZakeDD19DZGT0qmxfEW-16" value="&lt;p style=&quot;margin: 0px; font-variant-numeric: normal; font-variant-east-asian: normal; font-variant-alternates: normal; font-size-adjust: none; font-kerning: auto; font-optical-sizing: auto; font-feature-settings: normal; font-variation-settings: normal; font-variant-position: normal; font-stretch: normal; font-size: 11px; line-height: normal; font-family: Menlo; text-align: start; text-wrap: wrap;&quot; class=&quot;p1&quot;&gt;&lt;span style=&quot;font-variant-ligatures: no-common-ligatures;&quot; class=&quot;s1&quot;&gt;192.168.4.62&lt;/span&gt;&lt;/p&gt;" style="text;html=1;align=center;verticalAlign=middle;resizable=0;points=[];autosize=1;strokeColor=none;fillColor=none;" vertex="1" parent="1">
          <mxGeometry x="140" y="518" width="100" height="30" as="geometry" />
        </mxCell>
        <mxCell id="LZakeDD19DZGT0qmxfEW-17" value="Muge PC" style="text;html=1;align=center;verticalAlign=middle;resizable=0;points=[];autosize=1;strokeColor=none;fillColor=none;" vertex="1" parent="1">
          <mxGeometry x="150" y="548" width="70" height="30" as="geometry" />
        </mxCell>
        <mxCell id="LZakeDD19DZGT0qmxfEW-18" value="Cemil PC" style="text;html=1;align=center;verticalAlign=middle;resizable=0;points=[];autosize=1;strokeColor=none;fillColor=none;" vertex="1" parent="1">
          <mxGeometry x="330" y="518" width="70" height="30" as="geometry" />
        </mxCell>
        <mxCell id="LZakeDD19DZGT0qmxfEW-19" value="Rana PC" style="text;html=1;align=center;verticalAlign=middle;resizable=0;points=[];autosize=1;strokeColor=none;fillColor=none;" vertex="1" parent="1">
          <mxGeometry x="495" y="518" width="70" height="30" as="geometry" />
        </mxCell>
        <mxCell id="LZakeDD19DZGT0qmxfEW-20" value="Taha Phone" style="text;html=1;align=center;verticalAlign=middle;resizable=0;points=[];autosize=1;strokeColor=none;fillColor=none;" vertex="1" parent="1">
          <mxGeometry x="910" y="510" width="90" height="30" as="geometry" />
        </mxCell>
        <mxCell id="LZakeDD19DZGT0qmxfEW-21" value="Cam Phone" style="text;html=1;align=center;verticalAlign=middle;resizable=0;points=[];autosize=1;strokeColor=none;fillColor=none;" vertex="1" parent="1">
          <mxGeometry x="910" y="340" width="90" height="30" as="geometry" />
        </mxCell>
      </root>
    </mxGraphModel>
  </diagram>
</mxfile>
